# xmcd
#
# Track frame offsets:
#	150
#	21767
#	74298
#
# Disc length: 1689 seconds
#
# Revision: 1
# Processed by: cddbd v1.5.2PL0 Copyright (c) Steve Scherf et al.
# Submitted via: audiograbber 1.83.01
#
DISCID=1f069703
DTITLE=Grateful Dead - 82-08-08 Alpine Valley Music Theatre, East Troy WI
DYEAR=1900
DGENRE=
TTITLE0=Far From Me
TTITLE1=Scarlet Begonias
TTITLE2=Fire On The Mountain
EXTD=
EXTT0=
EXTT1=
EXTT2=
PLAYORDER=
